<mxfile host="app.diagrams.net" modified="2023-09-12T19:27:32.750Z" agent="Mozilla/5.0 (X11; Linux x86_64) AppleWebKit/537.36 (KHTML, like Gecko) Chrome/118.0.0.0 Safari/537.36" version="21.7.1" etag="ZXFYC3xS3bJH40udGvnj" type="github">
  <diagram name="Page-1" id="55P_7ha76YZlzk3N81bV">
    <mxGraphModel>
      <root>
        <mxCell id="0" />
        <mxCell id="1" parent="0" />
      </root>
    </mxGraphModel>
  </diagram>
</mxfile>
